<svg width="1728" height="1117" viewBox="0 0 1728 1117" fill="none" xmlns="http://www.w3.org/2000/svg">
<g clip-path="url(#clip0_57_11)">
<g opacity="0.3" filter="url(#filter0_f_57_11)">
<path d="M-50.6028 441.216C14.9449 491.559 69.7229 501.933 152.113 521.365C165.596 526.132 183.023 539.252 188.391 544.566C195.775 557.914 193.174 554.049 199.12 568.148C210.395 594.864 222.653 618.103 228.341 647.61C237.144 693.306 234.57 743.961 250.327 787.343C260.94 816.57 281.404 839.288 302.747 860.417C331.371 888.754 359.7 916.779 394.405 938.341C432.276 961.866 485.107 965.832 532.377 947.882C588.111 926.721 629.859 885.716 670.799 842.206C716.375 793.77 759.992 742.086 788.404 683.009C812.213 633.511 824.746 581.942 838.359 530.505C842.853 513.514 845.171 488.063 857.397 472.84C861.423 467.831 866.784 463.782 871.163 459.059C877.295 452.448 886.593 438.966 886.663 432.057C886.804 418.073 882.059 397.885 867.375 381.828C826.275 336.877 756.435 332.662 694.056 333.912C648.865 334.817 604.054 338.653 558.581 343.212C516.659 347.413 478.05 347.872 439.12 337.411C381.255 321.862 341.163 264.221 304.191 222.873C261.846 175.517 213.085 120.124 148.771 100.152C114.134 89.3965 73.7417 87.2906 36.5878 106.179C2.2386 123.641 -22.5069 157.458 -42.759 188.839C-78.3513 243.99 -100.836 306.38 -101 367.66C-101.088 400.573 -73.605 423.552 -50.6028 441.216Z" fill="#5800E7"/>
</g>
</g>
<g opacity="0.3" filter="url(#filter1_f_57_11)">
<path d="M602.926 409.216C686.044 459.559 755.506 469.933 859.98 489.365C877.079 494.132 899.176 507.252 905.983 512.566C915.346 525.914 912.049 522.049 919.588 536.148C933.886 562.864 949.429 586.103 956.643 615.61C967.806 661.306 964.541 711.961 984.521 755.343C997.98 784.57 1023.93 807.288 1050.99 828.417C1087.29 856.754 1123.21 884.779 1167.22 906.341C1215.24 929.866 1282.24 933.832 1342.18 915.882C1412.85 894.721 1465.79 853.716 1517.7 810.206C1575.5 761.77 1630.8 710.086 1666.83 651.009C1697.02 601.511 1712.92 549.942 1730.18 498.505C1735.88 481.514 1738.82 456.063 1754.32 440.84C1759.42 435.831 1766.22 431.782 1771.78 427.059C1779.55 420.448 1791.34 406.966 1791.43 400.057C1791.61 386.073 1785.59 365.885 1766.97 349.828C1714.86 304.877 1626.29 300.662 1547.19 301.912C1489.89 302.817 1433.07 306.653 1375.4 311.212C1322.25 315.413 1273.29 315.872 1223.92 305.411C1150.55 289.862 1099.71 232.221 1052.82 190.873C999.128 143.517 937.297 88.1235 855.742 68.1522C811.821 57.3965 760.602 55.2906 713.489 74.1788C669.932 91.6412 638.553 125.458 612.872 156.839C567.739 211.99 539.227 274.38 539.02 335.66C538.908 368.573 573.758 391.552 602.926 409.216Z" fill="#C800E7"/>
</g>
<defs>
<filter id="filter0_f_57_11" x="-681" y="-488" width="2147.67" height="2027.08" filterUnits="userSpaceOnUse" color-interpolation-filters="sRGB">
<feFlood flood-opacity="0" result="BackgroundImageFix"/>
<feBlend mode="normal" in="SourceGraphic" in2="BackgroundImageFix" result="shape"/>
<feGaussianBlur stdDeviation="290" result="effect1_foregroundBlur_57_11"/>
</filter>
<filter id="filter1_f_57_11" x="-40.9805" y="-520" width="2412.42" height="2027.08" filterUnits="userSpaceOnUse" color-interpolation-filters="sRGB">
<feFlood flood-opacity="0" result="BackgroundImageFix"/>
<feBlend mode="normal" in="SourceGraphic" in2="BackgroundImageFix" result="shape"/>
<feGaussianBlur stdDeviation="290" result="effect1_foregroundBlur_57_11"/>
</filter>
<clipPath id="clip0_57_11">
<rect width="1733" height="1605" fill="white" transform="translate(-147 -291)"/>
</clipPath>
</defs>
</svg>
