<svg width="60" height="57" viewBox="0 0 60 57" fill="none" xmlns="http://www.w3.org/2000/svg">
<path d="M16.9685 51.86L16.9833 51.8658L16.9982 51.8714C18.8732 52.5788 20.7835 53.1116 22.7273 53.4672C24.6482 53.8186 26.5129 54 28.3168 54C31.1506 54 33.8177 53.6142 36.2921 52.8065C38.7959 52.0065 41.0175 50.8411 42.9006 49.2732L42.9238 49.2538L42.9466 49.234C44.816 47.6125 46.2735 45.6597 47.3047 43.4015C48.4235 41.0707 48.9504 38.5029 48.9504 35.7581C48.9504 33.6769 48.5156 31.7101 47.5375 29.9581C46.6688 28.3512 45.5322 26.9428 44.1425 25.7443C42.8129 24.5977 41.3149 23.6278 39.6646 22.8263C38.2542 22.1171 36.8432 21.4346 35.4315 20.7791L35.4084 20.7683L35.3851 20.758C33.6897 20.0055 32.4531 19.3675 31.6175 18.8464C31.5698 18.8095 31.5306 18.7766 31.4988 18.7482C31.5052 18.7212 31.5107 18.7089 31.5116 18.7069C31.512 18.706 31.5122 18.7056 31.5124 18.7053C31.5126 18.7049 31.5129 18.7046 31.5136 18.7037C31.5146 18.7024 31.519 18.6969 31.5285 18.6877C31.7225 18.5594 32.1916 18.3548 33.2061 18.3548C34.5648 18.3548 35.9904 18.6228 37.4992 19.2032C38.9442 19.7591 40.6277 20.7541 42.5537 22.2945L44.829 24.1141L46.7145 21.8932L53.287 14.1512L55.186 11.9143L52.9917 9.96621C51.9218 9.01634 50.6997 8.15831 49.3448 7.38254C48.0062 6.53228 46.5222 5.79215 44.9065 5.15244C43.2892 4.49091 41.5736 3.98608 39.7667 3.63075C37.9409 3.20694 36.0456 3 34.0878 3C31.1268 3 28.3659 3.4453 25.8464 4.39102C23.3967 5.25766 21.2358 6.49088 19.4188 8.12312L19.3986 8.14127L19.3787 8.15979C17.6212 9.79712 16.2628 11.7564 15.3034 14.0034C14.3271 16.2357 13.855 18.6341 13.855 21.1613C13.855 23.2559 14.2466 25.2343 15.1302 27.0125L15.164 27.0805L15.2012 27.1467C16.074 28.7003 17.2088 30.0709 18.5827 31.2557L18.6088 31.2782L18.6353 31.3C19.9772 32.4047 21.4783 33.3977 23.1262 34.286L23.1635 34.3061L23.2014 34.3251C24.7659 35.1122 26.4315 35.8663 28.1963 36.5884C29.566 37.1804 30.5549 37.7256 31.2285 38.204L31.2476 38.2175C31.2419 38.2218 31.2356 38.2265 31.2285 38.2315C31.0061 38.3895 30.4412 38.6452 29.1985 38.6452C27.6895 38.6452 25.9194 38.3276 23.8599 37.6048C22.0999 36.987 20.2005 35.7556 18.1812 33.7239L16.0175 31.5468L13.8905 33.7598L6.83706 41.0986L4.84628 43.1698L6.82949 45.2484C8.28223 46.7709 9.89295 48.0868 11.659 49.1897C13.3628 50.2538 15.133 51.1451 16.9685 51.86Z" fill="white" stroke="black" stroke-width="6"/>
</svg>
